<svg id="outline-chat-24px" xmlns="http://www.w3.org/2000/svg" width="24" height="24" viewBox="0 0 24 24">
  <g id="Bounding_Boxes">
    <path id="Path_2711" data-name="Path 2711" d="M0,0H24V24H0Z" fill="none"/>
  </g>
  <g id="Outline" transform="translate(2 2)">
    <g id="Group_174" data-name="Group 174">
      <path id="XMLID_4_" d="M4,4H20V16H5.17L4,17.17V4H4M4,2A2,2,0,0,0,2.01,4L2,22l4-4H20a2.006,2.006,0,0,0,2-2V4a2.006,2.006,0,0,0-2-2Z" transform="translate(-2 -2)" fill="#3e85f0"/>
      <path id="XMLID_3_" d="M6,12h8v2H6Z" transform="translate(-2 -2)" fill="#3e85f0"/>
      <path id="XMLID_2_" d="M6,9H18v2H6Z" transform="translate(-2 -2)" fill="#3e85f0"/>
      <path id="XMLID_1_" d="M6,6H18V8H6Z" transform="translate(-2 -2)" fill="#3e85f0"/>
    </g>
  </g>
</svg>
