<svg id="Group_17859" data-name="Group 17859" xmlns="http://www.w3.org/2000/svg" xmlns:xlink="http://www.w3.org/1999/xlink" width="24" height="24" viewBox="0 0 24 24">
  <defs>
    <clipPath id="clip-path">
      <path id="Path_2718" data-name="Path 2718" d="M681.49,1249.995h24v24h-24Z" transform="translate(-681.49 -1249.995)" fill="#3e85f0"/>
    </clipPath>
  </defs>
  <g id="Group_13052" data-name="Group 13052" clip-path="url(#clip-path)">
    <g id="Group_13051" data-name="Group 13051" transform="translate(1 3.75)">
      <path id="Path_2719" data-name="Path 2719" d="M702.656,1253.745H684.323a1.839,1.839,0,0,0-1.833,1.833v12.833a1.839,1.839,0,0,0,1.833,1.834h18.333a1.833,1.833,0,0,0,1.824-1.834l.01-12.833A1.839,1.839,0,0,0,702.656,1253.745Zm0,14.666H684.323v-12.833h18.333Z" transform="translate(-682.49 -1253.745)" fill="#3e85f0"/>
      <g id="Path_20704" data-name="Path 20704" transform="translate(-682.49 -1253.745)" fill="none">
        <path d="M691.167,1257.985h5.167V1258a8.213,8.213,0,0,1-.516.752h-1.38a1.807,1.807,0,0,1,.386.811H696.3c.018,0,.027.011.027.021q-.5.742-.505.742h-.956a2.2,2.2,0,0,1-.365.918,2.248,2.248,0,0,1-.844.7,3.332,3.332,0,0,1-1.439.36v.01q0,.054,3.11,3.69h-1.37q-3.028-3.528-3.029-3.545v-.714l.011-.027a4.587,4.587,0,0,0,.628.038q1.7,0,2.111-1.1a.892.892,0,0,0,.064-.333h-3.072c-.014,0-.021-.007-.021-.022q.51-.741.521-.741H693.6v-.011a1.428,1.428,0,0,0-.811-.66,2.5,2.5,0,0,0-.773-.14h-1.365v-.027Q691.151,1257.986,691.167,1257.985Z" stroke="none"/>
        <path d="M 691.1669921875 1257.984985351562 L 696.333984375 1257.984985351562 L 696.333984375 1257.995971679688 C 696.0289916992188 1258.464965820312 695.8569946289062 1258.715942382812 695.8179931640625 1258.748046875 L 694.43798828125 1258.748046875 C 694.6270141601562 1258.969970703125 694.7559814453125 1259.239990234375 694.823974609375 1259.558959960938 L 696.2960205078125 1259.558959960938 C 696.3140258789062 1259.56298828125 696.322998046875 1259.569946289062 696.322998046875 1259.579956054688 C 695.9929809570312 1260.074951171875 695.8250122070312 1260.322021484375 695.8179931640625 1260.322021484375 L 694.8619995117188 1260.322021484375 C 694.8400268554688 1260.576049804688 694.718994140625 1260.881958007812 694.4970092773438 1261.239990234375 C 694.2030029296875 1261.60205078125 693.9219970703125 1261.836059570312 693.6530151367188 1261.943969726562 C 693.1519775390625 1262.183959960938 692.6719970703125 1262.303955078125 692.2139892578125 1262.303955078125 L 692.2139892578125 1262.31396484375 C 692.2139892578125 1262.349975585938 693.2509765625 1263.579956054688 695.323974609375 1266.004028320312 L 693.9539794921875 1266.004028320312 C 691.9349975585938 1263.651977539062 690.9249877929688 1262.469970703125 690.9249877929688 1262.458984375 L 690.9249877929688 1261.744995117188 L 690.9359741210938 1261.718017578125 C 691.114990234375 1261.743041992188 691.323974609375 1261.755981445312 691.5640258789062 1261.755981445312 C 692.6959838867188 1261.755981445312 693.3989868164062 1261.389038085938 693.6749877929688 1260.655029296875 C 693.718017578125 1260.546997070312 693.739013671875 1260.43603515625 693.739013671875 1260.322021484375 L 690.6669921875 1260.322021484375 C 690.6530151367188 1260.322021484375 690.64599609375 1260.31494140625 690.64599609375 1260.300048828125 C 690.9860229492188 1259.806030273438 691.1599731445312 1259.558959960938 691.1669921875 1259.558959960938 L 693.60498046875 1259.558959960938 L 693.60498046875 1259.547973632812 C 693.4650268554688 1259.265014648438 693.1950073242188 1259.045043945312 692.7940063476562 1258.887939453125 C 692.5079956054688 1258.7939453125 692.25 1258.748046875 692.02099609375 1258.748046875 L 690.656005859375 1258.748046875 L 690.656005859375 1258.720947265625 C 690.9860229492188 1258.23095703125 691.156005859375 1257.984985351562 691.1669921875 1257.984985351562 Z" stroke="none" fill="#3e85f0"/>
      </g>
    </g>
  </g>
</svg>
