<svg id="Group_17860" data-name="Group 17860" xmlns="http://www.w3.org/2000/svg" xmlns:xlink="http://www.w3.org/1999/xlink" width="24" height="24" viewBox="0 0 24 24">
  <defs>
    <clipPath id="clip-path">
      <path id="Path_676" data-name="Path 676" d="M1323.271,2585.546h24v24h-24Z" transform="translate(-1323.271 -2585.546)" fill="#3e85f0"/>
    </clipPath>
  </defs>
  <g id="Group_14357" data-name="Group 14357" clip-path="url(#clip-path)">
    <g id="Group_14356" data-name="Group 14356" transform="translate(4.601 0.5)">
      <g id="Group_14350" data-name="Group 14350" transform="translate(0 5.757)">
        <path id="Path_21367" data-name="Path 21367" d="M1342.669,2609.046h-14.8V2591.8h14.8Zm-13.007-1.7h11.217V2593.5h-11.217Z" transform="translate(-1327.872 -2591.803)" fill="#3e85f0"/>
      </g>
      <g id="Group_14351" data-name="Group 14351" transform="translate(0)">
        <path id="Path_21368" data-name="Path 21368" d="M1328.681,2593.394l-.809-1.6,11.344-5.751v6.55h-1.79v-3.635Z" transform="translate(-1327.872 -2586.046)" fill="#3e85f0"/>
      </g>
      <path id="Union_1" data-name="Union 1" d="M16729.52,20698.16v-1.793h4.982v1.793Zm-2.119-4.012v-1.787h.738a3.89,3.89,0,0,1,2.43-3.389,1.478,1.478,0,0,1,2.9.008,3.891,3.891,0,0,1,2.41,3.381h.738v1.787Zm6.689-1.787a2.091,2.091,0,0,0-4.16,0Z" transform="translate(-16724.611 -20678.748)" fill="#3e85f0" stroke="rgba(0,0,0,0)" stroke-width="1"/>
    </g>
  </g>
</svg>
