<svg xmlns="http://www.w3.org/2000/svg" xmlns:xlink="http://www.w3.org/1999/xlink" width="24" height="24" viewBox="0 0 24 24">
  <defs>
    <clipPath id="clip-path">
      <rect id="Rectangle_5668" data-name="Rectangle 5668" width="24" height="24" transform="translate(0 -0.41)" fill="#3e85f0"/>
    </clipPath>
  </defs>
  <g id="Group_17858" data-name="Group 17858" transform="translate(0 0.41)">
    <g id="Group_13086" data-name="Group 13086" clip-path="url(#clip-path)">
      <g id="Outline" transform="translate(2 1.658)">
        <g id="Group_259" data-name="Group 259">
          <path id="Path_3042" data-name="Path 3042" d="M785.5,1287v12h-12v-12h12m0-2h-12a2.006,2.006,0,0,0-2,2v12a2.006,2.006,0,0,0,2,2h12a2.006,2.006,0,0,0,2-2v-12A2.006,2.006,0,0,0,785.5,1285Z" transform="translate(-767.5 -1285)" fill="#3e85f0"/>
          <path id="Path_3043" data-name="Path 3043" d="M777,1294.67l1.69,2.26,2.48-3.1,3.33,4.17h-10Z" transform="translate(-767.5 -1285)" fill="#3e85f0"/>
          <path id="Path_3044" data-name="Path 3044" d="M767.5,1289v14a2.006,2.006,0,0,0,2,2h14v-2h-14v-14Z" transform="translate(-767.5 -1285)" fill="#3e85f0"/>
        </g>
      </g>
    </g>
  </g>
</svg>
