<svg xmlns="http://www.w3.org/2000/svg" xmlns:xlink="http://www.w3.org/1999/xlink" width="24" height="24" viewBox="0 0 24 24">
  <defs>
    <clipPath id="clip-path">
      <rect id="Rectangle_153846" data-name="Rectangle 153846" width="24" height="24" fill="none"/>
    </clipPath>
  </defs>
  <g id="Group_79520" data-name="Group 79520" clip-path="url(#clip-path)">
    <path id="Path_209273" data-name="Path 209273" d="M23,10.258a2.418,2.418,0,0,0-1.047-2.085q-2.875-2.085-5.739-4.185a2.147,2.147,0,0,0-2.728,0Q11.233,5.635,8.981,7.281a3.765,3.765,0,0,1,.377,1.583q2.5-1.824,5-3.651a.728.728,0,0,1,.964-.011q2.926,2.134,5.85,4.272a.837.837,0,0,1,.359.721q0,3.971,0,7.941a.76.76,0,0,1-.806.832H17.8V16.592a2.283,2.283,0,0,0-2.233-2.329H14.1a2.283,2.283,0,0,0-2.233,2.329v2.377H10.52a1.6,1.6,0,0,1,.179.434,1.537,1.537,0,0,1-.129,1.1l1.868,0c.028,0,.056,0,.087-.006a.832.832,0,0,0,.112.008h4.388a.634.634,0,0,0,.076,0l.028,0c1.09,0,2.543,0,3.633,0a2.051,2.051,0,0,0,.414-.037A2.279,2.279,0,0,0,23,18.09c0-2.611,0-5.221,0-7.832m-6.674,8.683h-2.99V16.535a.686.686,0,0,1,.671-.7h1.648a.686.686,0,0,1,.671.7Z" fill="#3e85f0"/>
    <path id="Path_209274" data-name="Path 209274" d="M16.695,9.695H15.578V8.53a.386.386,0,0,0-.378-.394h-.738a.387.387,0,0,0-.379.394V9.695H12.967a.388.388,0,0,0-.379.4v.77a.387.387,0,0,0,.379.394h1.116v1.165a.388.388,0,0,0,.379.4H15.2a.387.387,0,0,0,.378-.4V11.254h1.117a.386.386,0,0,0,.378-.394v-.77a.387.387,0,0,0-.378-.4" fill="#3e85f0"/>
    <path id="Path_209275" data-name="Path 209275" d="M2.385,19.061H9.238a.692.692,0,0,1,.745.541.711.711,0,0,1-.609.894c-.054,0-.108,0-.162,0H1.793a1.136,1.136,0,0,1-.274-.023.694.694,0,0,1-.512-.7c0-1.016-.016-2.033.006-3.049a3.536,3.536,0,0,1,3.033-3.424,4.663,4.663,0,0,1,.5-.029c.909,0,1.818-.019,2.727,0a3.467,3.467,0,0,1,2.874,1.578.739.739,0,0,1-.125,1.037.676.676,0,0,1-1-.192,2.145,2.145,0,0,0-1.845-.98c-.893,0-1.786,0-2.679,0a2.121,2.121,0,0,0-2.118,2.207c0,.7,0,1.4,0,2.129" fill="#3e85f0"/>
    <path id="Path_209276" data-name="Path 209276" d="M8.618,8.946a2.825,2.825,0,0,1-2.769,2.882,2.828,2.828,0,0,1-2.766-2.9A2.825,2.825,0,0,1,5.86,6.052,2.825,2.825,0,0,1,8.618,8.946M7.237,8.941A1.426,1.426,0,0,0,5.856,7.493a1.448,1.448,0,0,0,0,2.894A1.428,1.428,0,0,0,7.237,8.941" fill="#3e85f0"/>
  </g>
</svg>
