<svg xmlns="http://www.w3.org/2000/svg" width="24" height="24" viewBox="0 0 24 24">
  <g id="outline-library_add-24px" transform="translate(0 0.49)">
    <g id="Bounding_Boxes">
      <path id="Path_2625" data-name="Path 2625" d="M0-.49H24v24H0Z" fill="none"/>
    </g>
    <g id="Outline" transform="translate(2 2)">
      <g id="Group_149" data-name="Group 149">
        <path id="Path_2626" data-name="Path 2626" d="M4,5.51H2v14a2.006,2.006,0,0,0,2,2H18v-2H4Z" transform="translate(-2 -2)" fill="#3e85f0"/>
        <path id="Path_2627" data-name="Path 2627" d="M20,1.51H8a2.006,2.006,0,0,0-2,2v12a2.006,2.006,0,0,0,2,2H20a2.006,2.006,0,0,0,2-2v-12A2.006,2.006,0,0,0,20,1.51Zm0,14H8v-12H20Z" transform="translate(-2 -2)" fill="#3e85f0"/>
        <path id="Path_2628" data-name="Path 2628" d="M13,13.51h2v-3h3v-2H15v-3H13v3H10v2h3Z" transform="translate(-2 -2)" fill="#3e85f0"/>
      </g>
    </g>
  </g>
</svg>
