<svg id="outline-assessment-24px" xmlns="http://www.w3.org/2000/svg" width="24" height="24" viewBox="0 0 24 24">
  <g id="Bounding_Boxes">
    <path id="Path_2272" data-name="Path 2272" d="M0,0H24V24H0Z" fill="none"/>
  </g>
  <g id="Outline" transform="translate(3 3)">
    <g id="Group_32" data-name="Group 32">
      <path id="Path_2273" data-name="Path 2273" d="M19,3H5A2.006,2.006,0,0,0,3,5V19a2.006,2.006,0,0,0,2,2H19a2.006,2.006,0,0,0,2-2V5A2.006,2.006,0,0,0,19,3Zm0,16H5V5H19Z" transform="translate(-3 -3)" fill="#3e85f0"/>
      <rect id="Rectangle_11" data-name="Rectangle 11" width="2" height="7" transform="translate(4 7.021)" fill="#3e85f0"/>
      <rect id="Rectangle_12" data-name="Rectangle 12" width="2" height="10" transform="translate(8 4.021)" fill="#3e85f0"/>
      <rect id="Rectangle_13" data-name="Rectangle 13" width="2" height="4" transform="translate(12 10.021)" fill="#3e85f0"/>
    </g>
  </g>
</svg>
