<svg xmlns="http://www.w3.org/2000/svg" xmlns:xlink="http://www.w3.org/1999/xlink" width="24" height="24" viewBox="0 0 24 24">
  <defs>
    <clipPath id="clip-path">
      <rect id="Rectangle_8310" data-name="Rectangle 8310" width="24" height="24" transform="translate(16 831)" fill="#3e85f0" stroke="#707070" stroke-width="1"/>
    </clipPath>
  </defs>
  <g id="Mask_Group_20" data-name="Mask Group 20" transform="translate(-16 -831)" clip-path="url(#clip-path)">
    <g id="Group_18085" data-name="Group 18085" transform="translate(0 54)">
      <path id="Path_72643" data-name="Path 72643" d="M5,18H19V14H5ZM19,5.5V12H5V5.5A1.8,1.8,0,0,1,6.414,3.684,32.32,32.32,0,0,1,12,3a32.32,32.32,0,0,1,5.586.684A1.8,1.8,0,0,1,19,5.5ZM6.031,1.721A3.8,3.8,0,0,0,3,5.5V20H5v2a1,1,0,0,0,1,1H7a1,1,0,0,0,1-1V20h8v2a1,1,0,0,0,1,1h1a1,1,0,0,0,1-1V20h2V5.5a3.8,3.8,0,0,0-3.031-3.775A34.17,34.17,0,0,0,12,1,34.171,34.171,0,0,0,6.031,1.721ZM2,8v4H1a1,1,0,0,1-1-1V9A1,1,0,0,1,1,8ZM24,9a1,1,0,0,0-1-1H22v4h1a1,1,0,0,0,1-1Z" transform="translate(16 777)" fill="#3e85f0" fill-rule="evenodd"/>
      <circle id="Ellipse_754" data-name="Ellipse 754" cx="1" cy="1" r="1" transform="translate(23 792)" fill="#3e85f0"/>
      <circle id="Ellipse_755" data-name="Ellipse 755" cx="1" cy="1" r="1" transform="translate(31 792)" fill="#3e85f0"/>
      <rect id="Rectangle_8311" data-name="Rectangle 8311" width="6" height="2" rx="1" transform="translate(25 781)" fill="#3e85f0"/>
    </g>
  </g>
</svg>
